<svg width="17" height="17" viewBox="0 0 17 17" fill="none" xmlns="http://www.w3.org/2000/svg">
<rect x="0.140137" y="0.187523" width="16.7958" height="16.7958" rx="2.89583" fill="#1D61ED"/>
<path d="M13.0727 6.26881V6.56997C13.0781 7.44462 12.9098 8.31162 12.5775 9.12073C12.2453 9.92983 11.7558 10.6649 11.1373 11.2834C10.5188 11.9019 9.7837 12.3914 8.97459 12.7237C8.16549 13.0559 7.29848 13.2242 6.42384 13.2188C5.15091 13.2225 3.90401 12.8585 2.83301 12.1705H3.41217C4.46247 12.1705 5.48231 11.8177 6.30801 11.1686C5.81857 11.1642 5.34311 11.0049 4.9498 10.7136C4.5565 10.4222 4.26557 10.0138 4.11876 9.54689C4.26624 9.57041 4.41537 9.58203 4.56472 9.58164C4.77156 9.58015 4.97756 9.55489 5.17863 9.50635C4.65536 9.39954 4.18506 9.11521 3.84733 8.70149C3.50961 8.28778 3.32519 7.77008 3.3253 7.23602C3.6491 7.41463 4.00991 7.51574 4.37938 7.53139C4.05338 7.31574 3.78628 7.02223 3.60223 6.6774C3.41819 6.33257 3.32301 5.9473 3.3253 5.55643C3.32602 5.14956 3.43389 4.75005 3.63805 4.3981C4.22401 5.1207 4.95521 5.71216 5.7843 6.13419C6.61339 6.55621 7.52187 6.79939 8.45092 6.84797C8.41418 6.6727 8.39478 6.49422 8.39301 6.31514C8.37792 5.83841 8.51035 5.36865 8.77221 4.97C9.03406 4.57134 9.41259 4.26323 9.85609 4.08773C10.2996 3.91222 10.7865 3.87789 11.2502 3.98942C11.7139 4.10094 12.132 4.35289 12.4472 4.71085C12.9713 4.60556 13.4731 4.40956 13.9298 4.13168C13.7554 4.67214 13.3885 5.1297 12.8989 5.41743C13.3644 5.36713 13.8195 5.24604 14.2484 5.05835C13.9308 5.52224 13.5395 5.93111 13.09 6.26881H13.0727Z" fill="#F8F8F8"/>
</svg>
