<svg width="15" height="15" viewBox="0 0 15 15" fill="none" xmlns="http://www.w3.org/2000/svg">
<path d="M7.86406 0.21875C4.03461 0.21875 0.914062 3.3393 0.914062 7.16875C0.914062 10.9982 4.03461 14.1187 7.86406 14.1187C11.6935 14.1187 14.8141 10.9982 14.8141 7.16875C14.8141 3.3393 11.6935 0.21875 7.86406 0.21875ZM11.1862 5.57025L7.24551 9.5109C7.14821 9.6082 7.01616 9.6638 6.87716 9.6638C6.73816 9.6638 6.60611 9.6082 6.50881 9.5109L4.54196 7.54405C4.34041 7.3425 4.34041 7.0089 4.54196 6.80735C4.74351 6.6058 5.07711 6.6058 5.27866 6.80735L6.87716 8.40585L10.4495 4.83355C10.651 4.632 10.9846 4.632 11.1862 4.83355C11.3877 5.0351 11.3877 5.36175 11.1862 5.57025Z" fill="#251F73"/>
</svg>
