<svg width="14" height="14" viewBox="0 0 14 14" fill="none" xmlns="http://www.w3.org/2000/svg">
<path d="M6.91791 0.0245934C5.13611 0.0245934 4.91245 0.0324008 4.21266 0.064221C3.51419 0.0962381 3.03741 0.206789 2.62027 0.369039C2.1887 0.536604 1.82267 0.760789 1.45802 1.12557C1.09303 1.49029 0.86885 1.85632 0.70076 2.2877C0.53805 2.70497 0.427368 3.18195 0.395942 3.88009C0.364646 4.57994 0.356445 4.80366 0.356445 6.58553C0.356445 8.3674 0.364318 8.59034 0.396073 9.29012C0.428221 9.98859 0.538772 10.4654 0.700891 10.8825C0.868587 11.3141 1.09277 11.6801 1.45756 12.0448C1.82214 12.4097 2.18818 12.6345 2.61942 12.802C3.03689 12.9643 3.51373 13.0748 4.21207 13.1068C4.91192 13.1387 5.13539 13.1465 6.91712 13.1465C8.69912 13.1465 8.92206 13.1387 9.62184 13.1068C10.3203 13.0748 10.7976 12.9643 11.2151 12.802C11.6465 12.6345 12.012 12.4097 12.3765 12.0448C12.7415 11.6801 12.9656 11.3141 13.1337 10.8827C13.295 10.4654 13.4058 9.98846 13.4386 9.29025C13.47 8.59047 13.4782 8.3674 13.4782 6.58553C13.4782 4.80366 13.47 4.58007 13.4386 3.88022C13.4058 3.18175 13.295 2.70504 13.1337 2.2879C12.9656 1.85632 12.7415 1.49029 12.3765 1.12557C12.0116 0.760657 11.6466 0.536473 11.2147 0.369105C10.7964 0.206789 10.3194 0.0961725 9.62092 0.064221C8.92107 0.0324008 8.69827 0.0245934 6.91587 0.0245934H6.91791ZM6.32933 1.20693C6.50405 1.20667 6.69897 1.20693 6.91791 1.20693C8.66973 1.20693 8.87731 1.21323 9.56909 1.24465C10.2088 1.27391 10.556 1.38079 10.7872 1.47061C11.0934 1.58949 11.3117 1.73167 11.5412 1.96136C11.7709 2.19099 11.913 2.40967 12.0322 2.71586C12.122 2.94681 12.229 3.29401 12.2581 3.93369C12.2896 4.62534 12.2964 4.83306 12.2964 6.58402C12.2964 8.33499 12.2896 8.54277 12.2581 9.23435C12.2289 9.87404 12.122 10.2212 12.0322 10.4522C11.9133 10.7584 11.7709 10.9765 11.5412 11.206C11.3116 11.4356 11.0936 11.5777 10.7872 11.6966C10.5562 11.7869 10.2088 11.8935 9.56909 11.9227C8.87745 11.9542 8.66973 11.961 6.91791 11.961C5.16602 11.961 4.95837 11.9542 4.26679 11.9227C3.62711 11.8932 3.2799 11.7863 3.04844 11.6965C2.74231 11.5776 2.52357 11.4355 2.29394 11.2058C2.06431 10.9762 1.9222 10.758 1.80299 10.4517C1.71317 10.2207 1.60616 9.87351 1.57703 9.23383C1.5456 8.54218 1.53931 8.33446 1.53931 6.58238C1.53931 4.83037 1.5456 4.6237 1.57703 3.93205C1.60629 3.29237 1.71317 2.94517 1.80299 2.71389C1.92194 2.4077 2.06431 2.18903 2.294 1.95939C2.52363 1.72976 2.74231 1.58759 3.0485 1.46844C3.27977 1.37823 3.62711 1.27162 4.26679 1.24223C4.87203 1.21487 5.10658 1.20667 6.32933 1.20529V1.20693ZM10.4201 2.2963C9.98545 2.2963 9.6328 2.64861 9.6328 3.08334C9.6328 3.518 9.98545 3.87064 10.4201 3.87064C10.8548 3.87064 11.2074 3.518 11.2074 3.08334C11.2074 2.64868 10.8548 2.2963 10.4201 2.2963ZM6.91791 3.2162C5.05725 3.2162 3.54864 4.7248 3.54864 6.58553C3.54864 8.44626 5.05725 9.95415 6.91791 9.95415C8.77864 9.95415 10.2867 8.44626 10.2867 6.58553C10.2867 4.72487 8.77864 3.2162 6.91791 3.2162ZM6.91791 4.39853C8.1257 4.39853 9.10491 5.37761 9.10491 6.58553C9.10491 7.79332 8.1257 8.77253 6.91791 8.77253C5.71005 8.77253 4.73097 7.79332 4.73097 6.58553C4.73097 5.37761 5.71005 4.39853 6.91791 4.39853Z" fill="white"/>
</svg>
