<svg width="60" height="25" viewBox="0 0 60 25" fill="none" xmlns="http://www.w3.org/2000/svg">
<path d="M13.229 19.0052C9.79451 19.0052 7.00293 16.2136 7.00293 12.7792C7.00293 9.34473 9.79451 6.55315 13.229 6.55315C16.6634 6.55315 19.455 9.34473 19.455 12.7792C19.455 16.2136 16.6634 19.0052 13.229 19.0052ZM13.229 7.4219C10.2752 7.4219 7.87168 9.82544 7.87168 12.7792C7.87168 15.7329 10.2752 18.1365 13.229 18.1365C16.1827 18.1365 18.5863 15.7329 18.5863 12.7792C18.5863 9.82544 16.1827 7.4219 13.229 7.4219Z" fill="white"/>
<path d="M11.4915 18.4261H10.9123C10.6748 18.4261 10.4779 18.2292 10.4779 17.9917C10.4779 17.7542 10.6633 17.5631 10.9007 17.5573C9.99143 14.453 9.99143 11.1054 10.9007 8.00107C10.6633 7.99528 10.4779 7.80416 10.4779 7.5667C10.4779 7.32924 10.6748 7.13232 10.9123 7.13232H11.4915C11.6305 7.13232 11.7637 7.20182 11.8448 7.31187C11.9258 7.4277 11.949 7.57249 11.9027 7.7057C10.8138 10.978 10.8138 14.5804 11.9027 17.8585C11.949 17.9917 11.9258 18.1365 11.8448 18.2523C11.7637 18.3566 11.6305 18.4261 11.4915 18.4261Z" fill="white"/>
<path d="M14.9665 18.4261C14.9202 18.4261 14.8738 18.4203 14.8275 18.4029C14.6016 18.3276 14.4742 18.0786 14.5553 17.8527C15.6441 14.5804 15.6441 10.978 14.5553 7.69991C14.48 7.47403 14.6016 7.22499 14.8275 7.1497C15.0592 7.07441 15.3024 7.19603 15.3777 7.42191C16.5302 10.8737 16.5302 14.6731 15.3777 18.1191C15.3198 18.3102 15.146 18.4261 14.9665 18.4261Z" fill="white"/>
<path d="M13.2289 15.7909C11.613 15.7909 10.0029 15.565 8.45078 15.1074C8.44499 15.3391 8.25386 15.5302 8.01641 15.5302C7.77895 15.5302 7.58203 15.3333 7.58203 15.0959V14.5167C7.58203 14.3777 7.65153 14.2445 7.76157 14.1634C7.87741 14.0823 8.0222 14.0591 8.15541 14.1055C11.4277 15.1943 15.0359 15.1943 18.3082 14.1055C18.4414 14.0591 18.5862 14.0823 18.702 14.1634C18.8179 14.2445 18.8816 14.3777 18.8816 14.5167V15.0959C18.8816 15.3333 18.6847 15.5302 18.4472 15.5302C18.2097 15.5302 18.0186 15.3449 18.0128 15.1074C16.4549 15.565 14.8448 15.7909 13.2289 15.7909Z" fill="white"/>
<path d="M18.4411 11.4761C18.3948 11.4761 18.3484 11.4703 18.3021 11.4529C15.0298 10.3641 11.4216 10.3641 8.14931 11.4529C7.91764 11.5282 7.67439 11.4066 7.5991 11.1807C7.5296 10.949 7.65123 10.7058 7.8771 10.6305C11.3289 9.47795 15.1283 9.47795 18.5743 10.6305C18.8002 10.7058 18.9276 10.9548 18.8465 11.1807C18.7944 11.3602 18.6206 11.4761 18.4411 11.4761Z" fill="white"/>
<path d="M25.3314 15.7792V9.29252H26.3137L29.5663 14.1761V9.29252H30.5485V15.7792H29.5663L26.3137 10.8957V15.7792H25.3314ZM32.0134 10.3119C31.828 10.3119 31.6736 10.2563 31.55 10.1451C31.4327 10.0277 31.374 9.8825 31.374 9.70952C31.374 9.53655 31.4327 9.39446 31.55 9.28326C31.6736 9.16588 31.828 9.10719 32.0134 9.10719C32.1987 9.10719 32.3501 9.16588 32.4674 9.28326C32.591 9.39446 32.6528 9.53655 32.6528 9.70952C32.6528 9.8825 32.591 10.0277 32.4674 10.1451C32.3501 10.2563 32.1987 10.3119 32.0134 10.3119ZM31.5222 15.7792V11.1829H32.5045V15.7792H31.5222ZM35.3117 14.3707C35.0707 14.3707 34.8483 14.3429 34.6445 14.2873L34.246 14.6765C34.314 14.7197 34.3974 14.7568 34.4962 14.7877C34.595 14.8185 34.734 14.8463 34.9132 14.8711C35.0924 14.8958 35.3364 14.9205 35.6453 14.9452C36.2569 15.0008 36.6986 15.1491 36.9704 15.39C37.2422 15.6247 37.3781 15.9398 37.3781 16.3352C37.3781 16.607 37.304 16.8634 37.1557 17.1043C37.0136 17.3514 36.7882 17.5491 36.4793 17.6974C36.1766 17.8518 35.7874 17.9291 35.3117 17.9291C34.6692 17.9291 34.1472 17.8055 33.7456 17.5584C33.3502 17.3175 33.1525 16.9499 33.1525 16.4557C33.1525 16.2641 33.202 16.0726 33.3008 15.8811C33.4058 15.6958 33.5695 15.5197 33.7919 15.3529C33.6622 15.2973 33.5479 15.2386 33.4491 15.1769C33.3564 15.1089 33.273 15.0409 33.1989 14.973V14.7506L33.9958 13.9351C33.6375 13.6262 33.4583 13.2216 33.4583 12.7212C33.4583 12.4185 33.5294 12.1436 33.6715 11.8965C33.8197 11.6432 34.0329 11.4424 34.3109 11.2941C34.5889 11.1459 34.9225 11.0717 35.3117 11.0717C35.5711 11.0717 35.8121 11.1088 36.0345 11.1829H37.7488V11.8316L36.9333 11.8779C37.0816 12.1312 37.1557 12.4123 37.1557 12.7212C37.1557 13.0301 37.0816 13.3081 36.9333 13.5552C36.7912 13.8023 36.5812 14 36.3032 14.1483C36.0314 14.2965 35.7009 14.3707 35.3117 14.3707ZM35.3117 13.6015C35.5958 13.6015 35.8244 13.5274 35.9974 13.3791C36.1766 13.2247 36.2661 13.0085 36.2661 12.7305C36.2661 12.4463 36.1766 12.2301 35.9974 12.0818C35.8244 11.9335 35.5958 11.8594 35.3117 11.8594C35.0213 11.8594 34.7866 11.9335 34.6074 12.0818C34.4344 12.2301 34.3479 12.4463 34.3479 12.7305C34.3479 13.0085 34.4344 13.2247 34.6074 13.3791C34.7866 13.5274 35.0213 13.6015 35.3117 13.6015ZM34.0792 16.363C34.0792 16.6286 34.1966 16.8263 34.4313 16.9561C34.6661 17.092 34.9595 17.1599 35.3117 17.1599C35.6514 17.1599 35.9264 17.0858 36.1364 16.9375C36.3464 16.7954 36.4515 16.6039 36.4515 16.363C36.4515 16.1838 36.3804 16.0294 36.2383 15.8997C36.0962 15.7761 35.8275 15.6989 35.4321 15.668C35.1356 15.6495 34.873 15.6217 34.6445 15.5846C34.4282 15.702 34.28 15.8286 34.1997 15.9645C34.1194 16.1004 34.0792 16.2333 34.0792 16.363ZM40.2231 15.8904C39.7722 15.8904 39.3706 15.7915 39.0185 15.5939C38.6725 15.39 38.4007 15.1089 38.203 14.7506C38.0053 14.3923 37.9065 13.9753 37.9065 13.4996C37.9065 13.0177 38.0022 12.5945 38.1937 12.2301C38.3914 11.8656 38.6633 11.5814 39.0092 11.3775C39.3613 11.1737 39.7691 11.0717 40.2324 11.0717C40.6834 11.0717 41.0757 11.1737 41.4093 11.3775C41.7429 11.5752 42.0023 11.8409 42.1877 12.1745C42.373 12.5081 42.4657 12.8756 42.4657 13.2772C42.4657 13.339 42.4626 13.4069 42.4564 13.4811C42.4564 13.549 42.4533 13.6262 42.4471 13.7127H38.8702C38.9011 14.1575 39.0463 14.4973 39.3057 14.7321C39.5714 14.9606 39.8772 15.0749 40.2231 15.0749C40.5011 15.0749 40.7328 15.0131 40.9181 14.8896C41.1097 14.7599 41.2517 14.5869 41.3444 14.3707H42.3267C42.2031 14.8031 41.956 15.1645 41.5853 15.4549C41.2209 15.7452 40.7668 15.8904 40.2231 15.8904ZM40.2231 11.8779C39.8957 11.8779 39.6054 11.9768 39.3521 12.1745C39.0988 12.366 38.9443 12.6563 38.8887 13.0455H41.4834C41.4649 12.6872 41.3382 12.403 41.1035 12.193C40.8687 11.9829 40.5753 11.8779 40.2231 11.8779ZM43.1142 15.7792V11.1829H43.9945L44.0779 12.054C44.2386 11.7513 44.461 11.5134 44.7451 11.3405C45.0355 11.1613 45.3845 11.0717 45.7923 11.0717V12.1003H45.5235C45.2517 12.1003 45.0077 12.1467 44.7915 12.2393C44.5814 12.3258 44.4115 12.4772 44.2818 12.6934C44.1582 12.9034 44.0965 13.1969 44.0965 13.5737V15.7792H43.1142ZM46.8198 10.3119C46.6344 10.3119 46.48 10.2563 46.3564 10.1451C46.2391 10.0277 46.1804 9.8825 46.1804 9.70952C46.1804 9.53655 46.2391 9.39446 46.3564 9.28326C46.48 9.16588 46.6344 9.10719 46.8198 9.10719C47.0051 9.10719 47.1565 9.16588 47.2738 9.28326C47.3974 9.39446 47.4592 9.53655 47.4592 9.70952C47.4592 9.8825 47.3974 10.0277 47.2738 10.1451C47.1565 10.2563 47.0051 10.3119 46.8198 10.3119ZM46.3286 15.7792V11.1829H47.3109V15.7792H46.3286ZM49.7937 15.8904C49.4045 15.8904 49.0833 15.8255 48.83 15.6958C48.5767 15.5661 48.3883 15.3962 48.2647 15.1861C48.1412 14.9699 48.0794 14.7351 48.0794 14.4819C48.0794 14.0371 48.2524 13.6849 48.5983 13.4255C48.9443 13.166 49.4385 13.0363 50.081 13.0363H51.2857V12.9529C51.2857 12.5945 51.1868 12.3258 50.9891 12.1467C50.7976 11.9675 50.5474 11.8779 50.2385 11.8779C49.9667 11.8779 49.7289 11.9459 49.525 12.0818C49.3273 12.2115 49.2068 12.4061 49.1636 12.6656H48.1813C48.2122 12.332 48.3234 12.0478 48.5149 11.8131C48.7126 11.5721 48.9597 11.3899 49.2563 11.2663C49.559 11.1366 49.8895 11.0717 50.2478 11.0717C50.8903 11.0717 51.3876 11.2416 51.7397 11.5814C52.0919 11.915 52.2679 12.3721 52.2679 12.9529V15.7792H51.4154L51.332 14.9915C51.2023 15.2448 51.0138 15.4579 50.7667 15.6309C50.5196 15.8039 50.1953 15.8904 49.7937 15.8904ZM49.9883 15.0935C50.254 15.0935 50.4764 15.0317 50.6555 14.9081C50.8409 14.7784 50.9829 14.6085 51.0818 14.3985C51.1868 14.1884 51.2517 13.9567 51.2764 13.7035H50.1829C49.7937 13.7035 49.5157 13.7714 49.3489 13.9073C49.1883 14.0432 49.108 14.2131 49.108 14.417C49.108 14.627 49.1852 14.7938 49.3397 14.9174C49.5003 15.0348 49.7165 15.0935 49.9883 15.0935Z" fill="white"/>
</svg>
